<svg xmlns="http://www.w3.org/2000/svg" viewBox="0 0 300 300" xml:space="preserve" width="300" height="300">
  <path fill="#FFFFFF" d="M172.807 157.778c-.475-4.67-1.391-9.128-3.021-13.445-2.063-5.464-4.624-10.655-8.012-15.423-5.714-8.04-13.109-14.024-22.098-18.058-4.29-1.925-8.749-3.339-13.347-4.297a54 54 0 0 0-7.447-1.001c-2.069-.136-4.136-.213-6.205-.102-3.998.214-7.946.769-11.825 1.792-9.13 2.409-17.201 6.776-24.172 13.136-8.699 7.936-14.415 17.668-17.243 29.088-.479 1.936-.792 3.914-1.183 5.872-.07.352-.151.701-.232 1.077h-8.196c-.258-.272-.089-.569-.096-.842a5.4 5.4 0 0 1 .046-.761c.878-7.646 2.958-14.943 6.397-21.836 2.842-5.696 6.439-10.87 10.831-15.484 8.875-9.322 19.582-15.505 32.036-18.694a68 68 0 0 1 10.076-1.771c3.405-.346 6.815-.469 10.229-.302a62.6 62.6 0 0 1 21.345 4.857c7.416 3.115 14.038 7.453 19.898 12.949 5.888 5.523 10.657 11.897 14.272 19.117 2.78 5.552 4.745 11.381 5.828 17.504.469 2.65.819 5.313.9 8.005.059 1.959.142 3.922.074 5.878a74 74 0 0 1-.946 9.532 67.5 67.5 0 0 1-5.356 17.434 66.1 66.1 0 0 1-11.914 17.62 66.2 66.2 0 0 1-17.252 13.168 65.5 65.5 0 0 1-18.731 6.575c-3.184.598-6.385 1.007-9.625 1.099-1.525.043-3.052.131-4.574.073-2.212-.085-4.421-.229-6.621-.517-3.537-.463-7.016-1.176-10.433-2.197-9.333-2.79-17.641-7.421-24.931-13.88-5.854-5.187-10.619-11.239-14.333-18.117-2.828-5.236-4.888-10.767-6.253-16.558-.056-.236-.065-.484-.095-.725.943-.117 7.135-.121 8.149-.004.347 1.036.688 2.102 1.061 3.157 2.612 7.4 6.303 14.195 11.387 20.2 4.364 5.155 9.485 9.403 15.374 12.718 5.849 3.292 12.101 5.448 18.711 6.573 4.063.691 8.156.883 12.272.73 7.649-.284 14.941-2.051 21.891-5.238a56.7 56.7 0 0 0 16.486-11.426c6.182-6.149 10.721-13.331 13.676-21.524 1.484-4.115 2.477-8.347 3.028-12.689.478-3.763.526-7.534.343-11.314-.03-.616-.106-1.23-.17-1.946"/>
  <path fill="#FFFFFF" d="M161.03 56.279c.521.872 1.073 1.727 1.559 2.619 4.688 8.61 9.371 17.222 14.041 25.842 4.635 8.556 9.16 17.169 13.455 25.902 2.308 4.692 4.444 9.463 6.461 14.285 2.297 5.491 4.517 11.014 6.8 16.511a4562 4562 0 0 0 8.407 20.092c4.394 10.437 8.805 20.868 13.211 31.3q4.302 10.181 8.609 20.361c.113.266.232.531.373.783.088.158.498.166.586.01.16-.283.301-.579.43-.878q1.902-4.399 3.799-8.8c4.959-11.499 9.922-22.997 14.876-34.498 6.448-14.969 12.888-29.941 19.334-44.91 2.671-6.202 5.347-12.4 8.02-18.6.029-.067.052-.136.077-.204.624-1.665 1.808-2.48 3.592-2.717 1.901-.252 3.769-.764 5.651-1.158.349-.073.701-.127 1.155-.209-.087.262-.128.426-.194.579a942742 942742 0 0 1-56.854 131.409c-.023.052-.118.073-.241.143-.535-1.151-1.101-2.284-1.593-3.447a35223 35223 0 0 1-16.139-38.222c-6.006-14.248-12.016-28.495-17.996-42.753a5724 5724 0 0 1-12.852-30.859c-3.378-8.186-6.693-16.399-10.012-24.609-4.598-11.374-9.17-22.759-13.765-34.134a16.2 16.2 0 0 1-.998-3.748c.107-.095.157-.093.206-.092"/>
  <path fill="#FFFFFF" d="M113.164 128.225c-8.933.474-16.49 3.842-22.789 10.033-4.058 3.988-6.964 8.726-8.974 14.027-.437 1.152-.773 2.342-1.157 3.514-.068.206-.146.408-.217.602-.824.127-6.788.154-8.213.035-.152-.297-.039-.619.01-.923a37 37 0 0 1 1.379-5.713c2.149-6.58 5.722-12.281 10.589-17.189 4.066-4.1 8.736-7.313 14.047-9.583a39.3 39.3 0 0 1 10.36-2.862 56 56 0 0 1 5.645-.457c6.924-.203 13.59.943 19.948 3.746a42.2 42.2 0 0 1 11.939 7.899c5.237 4.912 8.983 10.807 11.611 17.458a42.2 42.2 0 0 1 2.521 9.449c.388 2.663.566 5.34.494 8.038-.17 6.409-1.603 12.516-4.342 18.306-3.496 7.39-8.61 13.423-15.348 18.062-5.498 3.785-11.559 6.202-18.12 7.372-1.644.293-3.308.443-4.977.572-2.148.165-4.286.07-6.418-.122-4.221-.38-8.303-1.377-12.244-2.947-5.222-2.08-9.913-5.007-14.032-8.83-5.714-5.303-9.783-11.656-12.085-19.12-.127-.412-.213-.837-.327-1.293.239-.025.417-.061.595-.06q3.272.013 6.544.036c.218.001.435.039.653.039.393.001.722.156.947.457.325.433.638.881.899 1.355.79 1.429 1.498 2.908 2.337 4.307 3.245 5.408 7.576 9.726 13.102 12.803a36.4 36.4 0 0 0 12.187 4.206c2.675.416 5.357.514 8.043.32 4.427-.32 8.66-1.447 12.679-3.334 5.285-2.482 9.772-5.994 13.419-10.557 3.865-4.835 6.343-10.301 7.379-16.414.25-1.471.394-2.949.458-4.44.265-6.133-.822-12.019-3.383-17.588-4.28-9.307-11.243-15.746-20.918-19.197-3.411-1.217-6.931-1.87-10.552-2.015-1.198-.048-2.392-.138-3.688.01"/>
  <path fill="#FFFFFF" d="M119.549 167.763q-3.63.347-7.262.701c-2.637.258-5.272.542-7.911.776a229 229 0 0 1-6.515.484c-2.68.161-5.363.285-8.045.407-1.342.061-2.686.084-4.029.118q-4.354.11-8.709.215l-.218.004c-6.067.029-12.133.085-18.199.078-3.522-.004-7.044-.091-10.565-.167a622 622 0 0 1-9.361-.266 527 527 0 0 1-9.787-.438 339 339 0 0 1-9.233-.625c-3.002-.248-6.002-.542-8.973-1.06a6 6 0 0 1-1.024-.268.56.56 0 0 1 .107-.354c3.72-.388 7.437-.808 11.161-1.156a460 460 0 0 1 10.639-.868c3.766-.263 7.537-.472 11.307-.677 1.958-.107 3.918-.169 5.878-.224 3.049-.086 6.098-.173 9.149-.215 3.887-.054 7.775-.102 11.662-.082 3.304.017 6.608.123 9.911.212 1.669.045 3.338.125 5.005.215 3.044.164 6.089.334 9.131.525 2.464.155 4.929.318 7.389.526 2.75.232 5.496.506 8.242.782 2.312.232 4.623.485 6.933.744 1.047.118 2.089.272 3.222.467a.2.2 0 0 1 .093.144"/>
  <path fill="#FFFFFF" d="M278.063 83.881c.132-.266.225-.461.349-.721l.801.247c.01.14.052.256.019.343-.626 1.664-1.264 3.324-1.895 4.987-4.88 12.857-9.757 25.716-14.641 38.572a263711 263711 0 0 1-22.624 59.53c-.229.602-.39 1.235-.784 1.862-.082-.145-.139-.213-.164-.292-.982-3.153-1.953-6.309-2.945-9.458-.198-.627-.152-1.195.118-1.79 1.362-3.008 2.704-6.025 4.054-9.039q10.502-23.449 21.002-46.899 8.14-18.185 16.276-36.371c.133-.298.263-.598.434-.968"/>
  <path fill="#FFFFFF" d="M204.274 102.505c-.139-.772-.253-1.452-.391-2.128-.116-.568-.091-1.13-.068-1.664.253-.121.341.018.409.136.163.282.325.567.455.865 4.474 10.24 9.07 20.426 13.348 30.751.333.804.655 1.613 1.009 2.408 1.074 2.411 1.594 4.963 1.985 7.555.449 2.978.938 5.951 1.435 8.922.521 3.114 1.072 6.224 1.611 9.335.557 3.218 1.121 6.436 1.672 9.655q.683 3.971 1.331 7.948c.055.335.268.856-.083.989-.454.172-.564-.415-.778-.712-.124-.173-.188-.39-.269-.592-3.204-7.979-6.433-15.949-9.6-23.944-1.696-4.282-3.299-8.602-4.919-12.914-.947-2.524-1.489-5.157-1.967-7.801-.929-5.143-1.847-10.287-2.768-15.431-.685-3.823-1.364-7.646-2.049-11.469-.109-.607-.232-1.212-.363-1.91"/>
</svg>
